<svg xmlns="http://www.w3.org/2000/svg" viewBox="0 0 960 560" font-family="Helvetica,Arial,sans-serif">
<rect width="960" height="560" fill="#ffffff"/>
<text x="480" y="30" text-anchor="middle" font-size="22" font-weight="bold" fill="#111">The finished shear — every station-day, one law</text>
<text x="480" y="52" text-anchor="middle" font-size="14" fill="#555">excess in-window depletion vs lag from own maximum · 82 measured rows · 2017 + 2023 + 2024 + Gannon storm</text>
<rect x="370.0" y="70" width="525.0" height="420" fill="#4f46e5" opacity="0.07"/>
<line x1="90" y1="346.6" x2="930" y2="346.6" stroke="#059669" stroke-width="2" stroke-dasharray="8 5"/>
<text x="98" y="338.6" font-size="13" fill="#059669" font-weight="bold">frozen threshold 50,189 ppm</text>
<line x1="90" y1="394.5" x2="930" y2="394.5" stroke="#ccc"/>
<line x1="90" y1="70" x2="90" y2="490" stroke="#333"/>
<line x1="90" y1="490" x2="930" y2="490" stroke="#333"/>
<line x1="125.0" y1="490" x2="125.0" y2="495" stroke="#333"/>
<text x="125.0" y="510" text-anchor="middle" font-size="12" fill="#333">-1000 s</text>
<line x1="265.0" y1="490" x2="265.0" y2="495" stroke="#333"/>
<text x="265.0" y="510" text-anchor="middle" font-size="12" fill="#333">-600 s</text>
<line x1="405.0" y1="490" x2="405.0" y2="495" stroke="#333"/>
<text x="405.0" y="510" text-anchor="middle" font-size="12" fill="#333">-200 s</text>
<line x1="545.0" y1="490" x2="545.0" y2="495" stroke="#333"/>
<text x="545.0" y="510" text-anchor="middle" font-size="12" fill="#333">+200 s</text>
<line x1="685.0" y1="490" x2="685.0" y2="495" stroke="#333"/>
<text x="685.0" y="510" text-anchor="middle" font-size="12" fill="#333">+600 s</text>
<line x1="825.0" y1="490" x2="825.0" y2="495" stroke="#333"/>
<text x="825.0" y="510" text-anchor="middle" font-size="12" fill="#333">+1000 s</text>
<line x1="85" y1="490.0" x2="90" y2="490.0" stroke="#333"/>
<text x="81" y="494.0" text-anchor="end" font-size="12" fill="#333">-100k</text>
<line x1="85" y1="394.5" x2="90" y2="394.5" stroke="#333"/>
<text x="81" y="398.5" text-anchor="end" font-size="12" fill="#333">0k</text>
<line x1="85" y1="299.1" x2="90" y2="299.1" stroke="#333"/>
<text x="81" y="303.1" text-anchor="end" font-size="12" fill="#333">100k</text>
<line x1="85" y1="203.6" x2="90" y2="203.6" stroke="#333"/>
<text x="81" y="207.6" text-anchor="end" font-size="12" fill="#333">200k</text>
<line x1="85" y1="108.2" x2="90" y2="108.2" stroke="#333"/>
<text x="81" y="112.2" text-anchor="end" font-size="12" fill="#333">300k</text>
<text x="510" y="542" text-anchor="middle" font-size="14" fill="#333">lag of deepest bin from own max-obscuration second (s)</text>
<text transform="rotate(-90 22 280)" x="22" y="280" text-anchor="middle" font-size="14" fill="#333">excess = window − flank depletion (ppm)</text>
<text x="376.0" y="86" font-size="12" fill="#4f46e5">lag gate [−300, +1200] s</text>
<circle cx="182.8" cy="394.5" r="4.5" fill="#9ca3af" opacity="0.75"/>
<circle cx="182.8" cy="394.5" r="4.5" fill="#9ca3af" opacity="0.75"/>
<circle cx="287.8" cy="428.1" r="4.5" fill="#9ca3af" opacity="0.75"/>
<circle cx="131.7" cy="394.5" r="4.5" fill="#9ca3af" opacity="0.75"/>
<circle cx="131.7" cy="394.5" r="4.5" fill="#9ca3af" opacity="0.75"/>
<circle cx="656.6" cy="405.5" r="4.5" fill="#9ca3af" opacity="0.75"/>
<circle cx="147.4" cy="394.5" r="4.5" fill="#9ca3af" opacity="0.75"/>
<circle cx="147.4" cy="394.5" r="4.5" fill="#9ca3af" opacity="0.75"/>
<circle cx="567.4" cy="392.8" r="4.5" fill="#9ca3af" opacity="0.75"/>
<circle cx="141.1" cy="394.5" r="4.5" fill="#9ca3af" opacity="0.75"/>
<circle cx="141.1" cy="394.5" r="4.5" fill="#9ca3af" opacity="0.75"/>
<circle cx="456.1" cy="428.8" r="4.5" fill="#9ca3af" opacity="0.75"/>
<circle cx="773.2" cy="362.0" r="4.5" fill="#9ca3af" opacity="0.75"/>
<circle cx="248.2" cy="394.5" r="4.5" fill="#9ca3af" opacity="0.75"/>
<circle cx="248.2" cy="424.4" r="4.5" fill="#9ca3af" opacity="0.75"/>
<circle cx="602.8" cy="93.5" r="7.0" fill="#4f46e5" opacity="0.95"/>
<circle cx="761.6" cy="106.6" r="7.0" fill="#4f46e5" opacity="0.95"/>
<circle cx="567.4" cy="145.0" r="7.0" fill="#4f46e5" opacity="0.95"/>
<circle cx="456.1" cy="176.7" r="7.0" fill="#4f46e5" opacity="0.95"/>
<circle cx="668.2" cy="210.3" r="7.0" fill="#4f46e5" opacity="0.95"/>
<circle cx="487.2" cy="378.1" r="4.5" fill="#9ca3af" opacity="0.75"/>
<circle cx="277.2" cy="394.5" r="4.5" fill="#9ca3af" opacity="0.75"/>
<circle cx="277.2" cy="380.1" r="4.5" fill="#9ca3af" opacity="0.75"/>
<circle cx="277.2" cy="394.5" r="4.5" fill="#9ca3af" opacity="0.75"/>
<circle cx="248.9" cy="361.1" r="4.5" fill="#9ca3af" opacity="0.75"/>
<circle cx="248.9" cy="394.5" r="4.5" fill="#9ca3af" opacity="0.75"/>
<circle cx="248.9" cy="342.9" r="4.5" fill="#9ca3af" opacity="0.75"/>
<circle cx="248.9" cy="394.5" r="4.5" fill="#9ca3af" opacity="0.75"/>
<circle cx="445.9" cy="403.2" r="4.5" fill="#9ca3af" opacity="0.75"/>
<circle cx="341.0" cy="394.5" r="4.5" fill="#9ca3af" opacity="0.75"/>
<circle cx="341.0" cy="392.5" r="4.5" fill="#9ca3af" opacity="0.75"/>
<circle cx="341.0" cy="394.5" r="4.5" fill="#9ca3af" opacity="0.75"/>
<circle cx="227.9" cy="333.2" r="4.5" fill="#9ca3af" opacity="0.75"/>
<circle cx="227.9" cy="394.5" r="4.5" fill="#9ca3af" opacity="0.75"/>
<circle cx="332.9" cy="379.9" r="4.5" fill="#9ca3af" opacity="0.75"/>
<circle cx="227.9" cy="394.5" r="4.5" fill="#9ca3af" opacity="0.75"/>
<circle cx="697.2" cy="231.9" r="7.0" fill="#4f46e5" opacity="0.95"/>
<circle cx="773.9" cy="275.2" r="7.0" fill="#4f46e5" opacity="0.95"/>
<circle cx="655.9" cy="269.0" r="7.0" fill="#4f46e5" opacity="0.95"/>
<circle cx="542.9" cy="266.9" r="7.0" fill="#4f46e5" opacity="0.95"/>
<circle cx="184.8" cy="397.7" r="4.5" fill="#9ca3af" opacity="0.75"/>
<circle cx="184.8" cy="394.5" r="4.5" fill="#9ca3af" opacity="0.75"/>
<circle cx="184.8" cy="394.5" r="4.5" fill="#9ca3af" opacity="0.75"/>
<circle cx="199.2" cy="393.5" r="4.5" fill="#9ca3af" opacity="0.75"/>
<circle cx="199.2" cy="394.5" r="4.5" fill="#9ca3af" opacity="0.75"/>
<circle cx="199.2" cy="394.5" r="4.5" fill="#9ca3af" opacity="0.75"/>
<circle cx="577.9" cy="377.4" r="4.5" fill="#9ca3af" opacity="0.75"/>
<circle cx="157.9" cy="394.5" r="4.5" fill="#9ca3af" opacity="0.75"/>
<circle cx="157.9" cy="394.5" r="4.5" fill="#9ca3af" opacity="0.75"/>
<circle cx="780.6" cy="388.1" r="4.5" fill="#9ca3af" opacity="0.75"/>
<circle cx="150.6" cy="394.5" r="4.5" fill="#9ca3af" opacity="0.75"/>
<circle cx="150.6" cy="394.5" r="4.5" fill="#9ca3af" opacity="0.75"/>
<circle cx="325.5" cy="360.8" r="4.5" fill="#9ca3af" opacity="0.75"/>
<circle cx="115.5" cy="394.5" r="4.5" fill="#9ca3af" opacity="0.75"/>
<circle cx="115.5" cy="394.5" r="4.5" fill="#9ca3af" opacity="0.75"/>
<circle cx="226.8" cy="394.5" r="4.5" fill="#9ca3af" opacity="0.75"/>
<circle cx="541.9" cy="399.2" r="4.5" fill="#9ca3af" opacity="0.75"/>
<circle cx="226.8" cy="394.5" r="4.5" fill="#9ca3af" opacity="0.75"/>
<circle cx="248.2" cy="394.5" r="4.5" fill="#9ca3af" opacity="0.75"/>
<circle cx="563.2" cy="376.0" r="4.5" fill="#9ca3af" opacity="0.75"/>
<circle cx="248.2" cy="394.5" r="4.5" fill="#9ca3af" opacity="0.75"/>
<circle cx="814.9" cy="339.6" r="7.0" fill="#4f46e5" opacity="0.95"/>
<circle cx="724.2" cy="327.6" r="7.0" fill="#4f46e5" opacity="0.95"/>
<circle cx="787.9" cy="312.8" r="7.0" fill="#4f46e5" opacity="0.95"/>
<circle cx="780.6" cy="319.3" r="7.0" fill="#4f46e5" opacity="0.95"/>
<circle cx="850.5" cy="300.4" r="7.0" fill="#4f46e5" opacity="0.95"/>
<circle cx="751.9" cy="304.9" r="7.0" fill="#4f46e5" opacity="0.95"/>
<circle cx="668.2" cy="301.2" r="7.0" fill="#4f46e5" opacity="0.95"/>
<circle cx="184.8" cy="394.5" r="6.0" fill="#dc2626" opacity="0.90"/>
<circle cx="184.8" cy="387.1" r="6.0" fill="#dc2626" opacity="0.90"/>
<circle cx="199.2" cy="394.5" r="6.0" fill="#dc2626" opacity="0.90"/>
<circle cx="199.2" cy="390.8" r="6.0" fill="#dc2626" opacity="0.90"/>
<circle cx="157.9" cy="394.5" r="6.0" fill="#dc2626" opacity="0.90"/>
<circle cx="472.9" cy="353.7" r="6.0" fill="#dc2626" opacity="0.90"/>
<circle cx="150.6" cy="394.5" r="6.0" fill="#dc2626" opacity="0.90"/>
<circle cx="150.6" cy="385.9" r="6.0" fill="#dc2626" opacity="0.90"/>
<circle cx="115.5" cy="394.5" r="6.0" fill="#dc2626" opacity="0.90"/>
<circle cx="115.5" cy="458.9" r="6.0" fill="#dc2626" opacity="0.90"/>
<circle cx="226.8" cy="441.9" r="6.0" fill="#dc2626" opacity="0.90"/>
<circle cx="226.8" cy="392.4" r="6.0" fill="#dc2626" opacity="0.90"/>
<circle cx="248.2" cy="394.5" r="6.0" fill="#dc2626" opacity="0.90"/>
<circle cx="248.2" cy="392.4" r="6.0" fill="#dc2626" opacity="0.90"/>
<g font-size="13">
<circle cx="700" cy="92" r="7" fill="#4f46e5"/><text x="712" y="96" fill="#111">eclipse day (16)</text>
<circle cx="700" cy="112" r="6" fill="#dc2626"/><text x="712" y="116" fill="#111">Gannon storm (14)</text>
<circle cx="700" cy="132" r="4.5" fill="#9ca3af"/><text x="712" y="136" fill="#111">quiet control (52)</text>
</g>
<text x="480" y="545" text-anchor="middle" font-size="12" fill="#777">Only eclipse days occupy the upper band inside the lag gate — a shadow is confined AND rides its own maximum; storms and drift cannot do both. Generated from the V252 ledger.</text>
</svg>
