<svg xmlns="http://www.w3.org/2000/svg" viewBox="0 0 900 612" font-family="ui-monospace,'SF Mono',Menlo,Consolas,monospace">
 <defs>
  <radialGradient id="plasma" cx="229" cy="326" r="150" gradientUnits="userSpaceOnUse">
   <stop offset="0%" stop-color="#eef4ff" stop-opacity="0.95"/><stop offset="26%" stop-color="#8ab4ff" stop-opacity="0.72"/>
   <stop offset="55%" stop-color="#6a54ff" stop-opacity="0.34"/><stop offset="100%" stop-color="#6a54ff" stop-opacity="0"/>
  </radialGradient>
  <style>
   .kick{font-size:12px;letter-spacing:2.5px;fill:#5f7285}
   .h{font-size:33px;fill:#e8eef6}.serif{font-family:Georgia,'Times New Roman',serif}
   .sub{font-size:13px;fill:#8195aa}.tiny{font-size:11px;fill:#5f7285}.lbl{font-size:12px;fill:#5f7285;letter-spacing:1px}
   .win{fill:#3fb950}.miss{fill:#f85149}.acc{fill:#58a6ff}
   .plasma{animation:pl 4.2s ease-in-out infinite}@keyframes pl{0%,100%{opacity:.92}50%{opacity:.6}}
   .core{animation:core 4.2s ease-in-out infinite}@keyframes core{0%,100%{r:5px;opacity:1}50%{r:7px;opacity:.75}}
   .sw{animation:sw 3.4s steps(1) infinite}.sm{animation:sm 3.4s steps(1) infinite}
   @keyframes sw{0%,49%{opacity:1}50%,100%{opacity:0}}@keyframes sm{0%,49%{opacity:0}50%,100%{opacity:1}}
   .swbox{animation:swbox 3.4s steps(1) infinite}@keyframes swbox{0%,49%{stroke:#7a2420}50%,100%{stroke:#2b6b39}}
   .hold{animation:hold 4.2s ease-in-out infinite}@keyframes hold{0%,100%{opacity:1}50%{opacity:.88}}
   @media (prefers-reduced-motion:reduce){.plasma,.core,.sw,.sm,.swbox,.hold{animation:none}.sw{opacity:0}.sm{opacity:1}}
  </style>
 </defs>
 <rect width="900" height="612" fill="#0a0e14"/>
 <text x="42" y="46" class="kick">AFFINE.EARTH · STUDY 34 · FUSION CONTROL ON THE vQBIT SUBSTRATE</text>
 <text x="40" y="92" class="h serif">We need fusion — and a verdict the world can check.</text>
 <text x="42" y="122" class="sub">The physics is known. What was missing is a safety verdict that is exact, the same for every observer, and</text>
 <text x="42" y="140" class="sub">re-derivable by anyone on Earth — not a bigger computer guessing. <tspan fill="#58a6ff">The numbers are in.</tspan></text>
 <ellipse class="plasma" cx="229" cy="326" rx="86" ry="128" fill="url(#plasma)"/>
  <polyline points="305.0,326.0 304.6,316.7 303.6,307.4 301.8,298.2 299.4,289.1 296.3,280.2 292.7,271.5 288.4,263.0 283.7,254.8 278.4,246.8 272.7,239.3 266.7,232.0 260.4,225.2 253.8,218.9 247.0,212.9 240.2,207.5 233.2,202.6 226.2,198.2 219.2,194.3 212.3,191.1 205.5,188.4 198.9,186.2 192.4,184.7 186.1,183.8 180.1,183.5 174.3,183.8 168.8,184.7 163.6,186.2 158.7,188.4 154.0,191.1 149.7,194.3 145.6,198.2 141.8,202.6 138.3,207.5 135.1,212.9 132.1,218.9 129.5,225.2 127.0,232.0 124.9,239.3 122.9,246.8 121.2,254.7 119.7,263.0 118.4,271.5 117.4,280.2 116.5,289.1 115.9,298.2 115.4,307.4 115.1,316.7 115.0,326.0 115.1,335.3 115.4,344.6 115.9,353.8 116.5,362.9 117.4,371.8 118.4,380.5 119.7,389.0 121.2,397.2 122.9,405.2 124.9,412.7 127.0,420.0 129.5,426.8 132.1,433.1 135.1,439.1 138.3,444.5 141.8,449.4 145.6,453.8 149.7,457.7 154.0,460.9 158.7,463.6 163.6,465.8 168.8,467.3 174.3,468.2 180.1,468.5 186.1,468.2 192.4,467.3 198.9,465.8 205.5,463.6 212.3,460.9 219.2,457.7 226.2,453.8 233.2,449.4 240.2,444.5 247.0,439.1 253.8,433.1 260.4,426.8 266.7,420.0 272.7,412.7 278.4,405.2 283.7,397.2 288.4,389.0 292.7,380.5 296.3,371.8 299.4,362.9 301.8,353.8 303.6,344.6 304.6,335.3 305.0,326.0" fill="none" stroke="#4f83b8" stroke-width="1.6"/>
  <polyline points="286.0,326.0 285.7,318.5 284.9,311.1 283.5,303.8 281.5,296.5 279.1,289.4 276.1,282.4 272.7,275.6 268.9,269.0 264.7,262.7 260.2,256.6 255.4,250.8 250.3,245.4 245.1,240.3 239.6,235.6 234.1,231.2 228.5,227.3 222.9,223.8 217.4,220.7 211.8,218.0 206.4,215.9 201.1,214.2 195.9,213.0 190.9,212.2 186.1,212.0 181.5,212.2 177.1,213.0 172.9,214.2 168.9,215.9 165.2,218.0 161.7,220.7 158.5,223.8 155.4,227.3 152.6,231.2 150.1,235.6 147.7,240.3 145.6,245.4 143.6,250.8 141.9,256.6 140.3,262.7 139.0,269.0 137.8,275.6 136.8,282.4 135.9,289.4 135.2,296.5 134.7,303.8 134.3,311.1 134.1,318.5 134.0,326.0 134.1,333.5 134.3,340.9 134.7,348.2 135.2,355.5 135.9,362.6 136.8,369.6 137.8,376.4 139.0,383.0 140.3,389.3 141.9,395.4 143.6,401.2 145.6,406.6 147.7,411.7 150.1,416.4 152.6,420.8 155.4,424.7 158.5,428.2 161.7,431.3 165.2,434.0 168.9,436.1 172.9,437.8 177.1,439.0 181.5,439.8 186.1,440.0 190.9,439.8 195.9,439.0 201.1,437.8 206.4,436.1 211.8,434.0 217.4,431.3 222.9,428.2 228.5,424.7 234.1,420.8 239.6,416.4 245.1,411.7 250.3,406.6 255.4,401.2 260.2,395.4 264.7,389.3 268.9,383.0 272.7,376.4 276.1,369.6 279.1,362.6 281.5,355.5 283.5,348.2 284.9,340.9 285.7,333.5 286.0,326.0" fill="none" stroke="#3c6a9c" stroke-width="1.3"/>
  <polyline points="267.0,326.0 266.8,320.4 266.2,314.8 265.1,309.3 263.6,303.9 261.8,298.5 259.6,293.3 257.1,288.2 254.2,283.2 251.0,278.5 247.6,274.0 244.0,269.6 240.2,265.5 236.3,261.7 232.2,258.2 228.1,254.9 223.9,252.0 219.7,249.3 215.5,247.0 211.4,245.0 207.3,243.4 203.3,242.1 199.4,241.2 195.7,240.7 192.1,240.5 188.6,240.7 185.3,241.2 182.2,242.1 179.2,243.4 176.4,245.0 173.8,247.0 171.3,249.3 169.1,252.0 167.0,254.9 165.1,258.2 163.3,261.7 161.7,265.5 160.2,269.6 158.9,274.0 157.8,278.5 156.7,283.2 155.8,288.2 155.1,293.3 154.4,298.5 153.9,303.9 153.5,309.3 153.2,314.8 153.1,320.4 153.0,326.0 153.1,331.6 153.2,337.2 153.5,342.7 153.9,348.1 154.4,353.5 155.1,358.7 155.8,363.8 156.7,368.7 157.8,373.5 158.9,378.0 160.2,382.4 161.7,386.5 163.3,390.3 165.1,393.8 167.0,397.1 169.1,400.0 171.3,402.7 173.8,405.0 176.4,407.0 179.2,408.6 182.2,409.9 185.3,410.8 188.6,411.3 192.1,411.5 195.7,411.3 199.4,410.8 203.3,409.9 207.3,408.6 211.4,407.0 215.5,405.0 219.7,402.7 223.9,400.0 228.1,397.1 232.2,393.8 236.3,390.3 240.2,386.5 244.0,382.4 247.6,378.0 251.0,373.5 254.2,368.7 257.1,363.8 259.6,358.7 261.8,353.5 263.6,348.1 265.1,342.7 266.2,337.2 266.8,331.6 267.0,326.0" fill="none" stroke="#345a86" stroke-width="1.2"/>
  <polyline points="248.0,326.0 247.9,322.3 247.4,318.6 246.7,314.9 245.8,311.2 244.5,307.7 243.1,304.2 241.4,300.8 239.5,297.5 237.4,294.3 235.1,291.3 232.7,288.4 230.2,285.7 227.5,283.1 224.8,280.8 222.1,278.6 219.3,276.6 216.5,274.9 213.7,273.3 210.9,272.0 208.2,270.9 205.5,270.1 203.0,269.5 200.5,269.1 198.0,269.0 195.7,269.1 193.5,269.5 191.4,270.1 189.5,270.9 187.6,272.0 185.9,273.3 184.2,274.9 182.7,276.6 181.3,278.6 180.0,280.8 178.9,283.1 177.8,285.7 176.8,288.4 175.9,291.3 175.2,294.3 174.5,297.5 173.9,300.8 173.4,304.2 173.0,307.7 172.6,311.2 172.3,314.9 172.2,318.6 172.0,322.3 172.0,326.0 172.0,329.7 172.2,333.4 172.3,337.1 172.6,340.8 173.0,344.3 173.4,347.8 173.9,351.2 174.5,354.5 175.2,357.7 175.9,360.7 176.8,363.6 177.8,366.3 178.9,368.9 180.0,371.2 181.3,373.4 182.7,375.4 184.2,377.1 185.9,378.7 187.6,380.0 189.5,381.1 191.4,381.9 193.5,382.5 195.7,382.9 198.0,383.0 200.5,382.9 203.0,382.5 205.5,381.9 208.2,381.1 210.9,380.0 213.7,378.7 216.5,377.1 219.3,375.4 222.1,373.4 224.8,371.2 227.5,368.9 230.2,366.3 232.7,363.6 235.1,360.7 237.4,357.7 239.5,354.5 241.4,351.2 243.1,347.8 244.5,344.3 245.8,340.8 246.7,337.1 247.4,333.4 247.9,329.7 248.0,326.0" fill="none" stroke="#2c4a70" stroke-width="1.1"/>
  <polyline points="230.9,326.0 230.8,323.9 230.6,321.9 230.2,319.9 229.7,317.9 229.0,315.9 228.2,314.0 227.3,312.1 226.2,310.3 225.1,308.6 223.8,306.9 222.5,305.3 221.1,303.8 219.6,302.4 218.2,301.1 216.6,299.9 215.1,298.9 213.6,297.9 212.0,297.0 210.5,296.3 209.0,295.7 207.5,295.3 206.1,294.9 204.8,294.7 203.4,294.6 202.2,294.7 200.9,294.9 199.8,295.3 198.7,295.7 197.7,296.3 196.7,297.0 195.8,297.9 195.0,298.9 194.2,299.9 193.5,301.1 192.9,302.4 192.3,303.8 191.7,305.3 191.3,306.9 190.8,308.6 190.5,310.3 190.1,312.1 189.9,314.0 189.6,315.9 189.4,317.9 189.3,319.9 189.2,321.9 189.1,323.9 189.1,326.0 189.1,328.1 189.2,330.1 189.3,332.1 189.4,334.1 189.6,336.1 189.9,338.0 190.1,339.9 190.5,341.7 190.8,343.4 191.3,345.1 191.7,346.7 192.3,348.2 192.9,349.6 193.5,350.9 194.2,352.1 195.0,353.1 195.8,354.1 196.7,355.0 197.7,355.7 198.7,356.3 199.8,356.7 200.9,357.1 202.2,357.3 203.4,357.4 204.8,357.3 206.1,357.1 207.5,356.7 209.0,356.3 210.5,355.7 212.0,355.0 213.6,354.1 215.1,353.1 216.6,352.1 218.2,350.9 219.6,349.6 221.1,348.2 222.5,346.7 223.8,345.1 225.1,343.4 226.2,341.7 227.3,339.9 228.2,338.0 229.0,336.1 229.7,334.1 230.2,332.1 230.6,330.1 230.8,328.1 230.9,326.0" fill="none" stroke="#26405f" stroke-width="1.0"/>
 <circle class="core" cx="229" cy="326" r="5" fill="#eef4ff"/>
 <text x="210" y="486" text-anchor="middle" class="tiny">ITER — at the exact edge of its 0.85 Greenwald safety threshold</text>
 <rect x="440" y="196" width="418" height="118" rx="7" fill="#111823" stroke="#3a5169"/>
 <text x="462" y="224" class="lbl" fill="#8aa0b6">THE AFFINE WAY · vQbit · exact integer</text>
 <text class="hold" x="462" y="264" font-size="26" font-weight="bold" fill="#e3b341">NOT_MEASURED</text>
 <text x="462" y="288" class="tiny" fill="#8195aa">at the 0.85 edge — closer than π is pinned</text>
 <text x="462" y="305" class="tiny" fill="#3fb950">one exact integer everywhere else · the same on every machine</text>
 <rect class="swbox" x="440" y="330" width="418" height="118" rx="7" fill="#0d141d" stroke="#7a2420"/>
 <text x="462" y="358" class="lbl">a trained surrogate · float</text>
 <text class="sw win" x="462" y="398" font-size="28" font-weight="bold">WIN</text>
 <text class="sm miss" x="462" y="398" font-size="28" font-weight="bold">MISS</text>
 <text x="556" y="398" class="sub">same plasma · same instant</text>
 <text x="462" y="424" class="tiny" fill="#8a6a6a">the π it rounds to decides it: 355/113 vs 333/106</text>
 <line x1="42" y1="512" x2="858" y2="512" stroke="#1e2936"/>
 <text x="42" y="536" class="tiny" fill="#8195aa">THE NUMBERS ARE IN — 142 operating points (ITER · SPARC · JET · DIII-D) where the float verdict contradicts itself.</text>
 <text x="42" y="554" class="tiny" fill="#8195aa">The exact vQbit court refused every one; single precision flipped none — this is about agreement, not accuracy.</text>
 <text x="42" y="584" class="serif" font-size="17" fill="#e8eef6">Affine Fusion on the vQbit substrate — exact, invariant, re-derivable. <tspan class="acc">The road every observer can re-derive.</tspan></text>
 <text x="42" y="605" class="tiny" fill="#47576a">Replay:  swift reproduce/fusion-exact-vs-float.swift  ·  PROOF_EXACT_VERDICT_IS_OBSERVER_INVARIANT</text>
</svg>
