<svg xmlns="http://www.w3.org/2000/svg" viewBox="0 0 960 480" font-family="Helvetica,Arial,sans-serif"><rect width="960" height="480" fill="#ffffff"/><text x="480" y="34" font-size="22" font-weight="bold" fill="#111" text-anchor="middle">Study 06 — Forcing: one point, one clock, four wave speeds</text><text x="480" y="56" font-size="14" fill="#555" text-anchor="middle">Punggye-ri 41.30N 129.08E, depth 0 — origin 2017-09-03 03:30:01.760 UTC (ComCat us2000aert, 10 ms clock)</text><line x1="330" y1="90" x2="330" y2="400" stroke="#e5e7eb"/><line x1="520" y1="90" x2="520" y2="400" stroke="#e5e7eb"/><line x1="710" y1="90" x2="710" y2="400" stroke="#e5e7eb"/><line x1="140" y1="338" x2="900" y2="338" stroke="#e5e7eb"/><line x1="140" y1="276" x2="900" y2="276" stroke="#e5e7eb"/><line x1="140" y1="214" x2="900" y2="214" stroke="#e5e7eb"/><line x1="140" y1="152" x2="900" y2="152" stroke="#e5e7eb"/><line x1="140" y1="90" x2="900" y2="90" stroke="#e5e7eb"/><polygon points="140,400 882,90 800,90" fill="#fca5a5" fill-opacity="0.30"/><line x1="140" y1="400" x2="800" y2="90" stroke="#dc2626" stroke-width="1" stroke-opacity="0.6"/><line x1="140" y1="400" x2="882" y2="90" stroke="#dc2626" stroke-width="1" stroke-opacity="0.6"/><line x1="140" y1="400" x2="656" y2="90" stroke="#dc2626" stroke-width="2" stroke-dasharray="6,4"/><line x1="140" y1="400" x2="536" y2="90" stroke="#a5b4fc" stroke-width="2.5"/><line x1="140" y1="400" x2="437" y2="90" stroke="#4f46e5" stroke-width="2.5"/><text x="437" y="84" font-size="12" fill="#4f46e5" text-anchor="middle">Pn 8.0 km/s</text><text x="536" y="84" font-size="12" fill="#4f46e5" text-anchor="middle">Pg 6.0 km/s</text><text x="656" y="84" font-size="12" fill="#dc2626" text-anchor="middle">Sn 4.6 km/s</text><text x="841" y="84" font-size="12" fill="#dc2626" text-anchor="middle">Lg 3.6–3.2 km/s</text><line x1="140" y1="171" x2="900" y2="171" stroke="#555" stroke-width="1" stroke-dasharray="2,3"/><text x="898" y="166" font-size="12" fill="#333" text-anchor="end">IC.MDJ  Δ ≈ 370 km</text><line x1="140" y1="109" x2="900" y2="109" stroke="#555" stroke-width="1" stroke-dasharray="2,3"/><text x="898" y="104" font-size="12" fill="#333" text-anchor="end">IU.INCN  Δ ≈ 470 km</text><rect x="349" y="159" width="48" height="24" fill="none" stroke="#4f46e5" stroke-dasharray="3,2"/><text x="373" y="210" font-size="11" fill="#4f46e5" text-anchor="middle">P window [44,54] s</text><circle cx="360" cy="171" r="4" fill="#4f46e5"/><text x="355" y="192" font-size="11" fill="#4f46e5" text-anchor="middle">46 s</text><circle cx="433" cy="171" r="4" fill="#a5b4fc"/><text x="433" y="192" font-size="11" fill="#4f46e5" text-anchor="middle">62 s</text><circle cx="522" cy="171" r="4" fill="#dc2626"/><text x="522" y="192" font-size="11" fill="#dc2626" text-anchor="middle">80 s</text><line x1="628" y1="171" x2="689" y2="171" stroke="#dc2626" stroke-width="6" stroke-opacity="0.8"/><text x="658" y="192" font-size="11" fill="#dc2626" text-anchor="middle">103–116 s</text><circle cx="419" cy="109" r="4" fill="#4f46e5"/><text x="414" y="128" font-size="11" fill="#4f46e5" text-anchor="middle">59 s</text><circle cx="512" cy="109" r="4" fill="#a5b4fc"/><text x="512" y="128" font-size="11" fill="#4f46e5" text-anchor="middle">78 s</text><circle cx="625" cy="109" r="4" fill="#dc2626"/><text x="625" y="128" font-size="11" fill="#dc2626" text-anchor="middle">102 s</text><line x1="760" y1="109" x2="838" y2="109" stroke="#dc2626" stroke-width="6" stroke-opacity="0.8"/><text x="799" y="128" font-size="11" fill="#dc2626" text-anchor="middle">131–147 s</text><line x1="140" y1="400" x2="900" y2="400" stroke="#333" stroke-width="1.5"/><line x1="140" y1="90" x2="140" y2="400" stroke="#333" stroke-width="1.5"/><circle cx="140" cy="400" r="5" fill="#4f46e5"/><text x="152" y="390" font-size="11" fill="#333">origin t = 0 — depth 0, clock to 10 ms</text><text x="140" y="420" font-size="11" fill="#555" text-anchor="middle">0</text><text x="330" y="420" font-size="11" fill="#555" text-anchor="middle">40</text><text x="520" y="420" font-size="11" fill="#555" text-anchor="middle">80</text><text x="710" y="420" font-size="11" fill="#555" text-anchor="middle">120</text><text x="900" y="420" font-size="11" fill="#555" text-anchor="middle">160</text><text x="520" y="438" font-size="12" fill="#333" text-anchor="middle">seconds after 03:30:01.760 UTC</text><text x="132" y="404" font-size="11" fill="#555" text-anchor="end">0</text><text x="132" y="342" font-size="11" fill="#555" text-anchor="end">100</text><text x="132" y="280" font-size="11" fill="#555" text-anchor="end">200</text><text x="132" y="218" font-size="11" fill="#555" text-anchor="end">300</text><text x="132" y="156" font-size="11" fill="#555" text-anchor="end">400</text><text x="132" y="94" font-size="11" fill="#555" text-anchor="end">500</text><text x="108" y="245" font-size="12" fill="#333" text-anchor="middle" transform="rotate(-90 108 245)">Δ epicentral distance (km)</text><text x="480" y="458" font-size="12" fill="#555" text-anchor="middle">Every window is cut before any waveform is opened — edges padded ±2 s, sealed as per-station integer sample indices</text><text x="480" y="474" font-size="12" fill="#555" text-anchor="middle">Zero free parameters: fixed epicenter, catalog clock — ±30 s jitter control runs on both classes</text></svg>
